<svg width="2048" height="526" viewBox="0 0 2048 526" fill="none" xmlns="http://www.w3.org/2000/svg">
<path d="M915.881 277.744H863.241C861.74 269.112 858.972 261.464 854.937 254.802C850.902 248.046 845.882 242.322 839.877 237.631C833.872 232.939 827.022 229.421 819.328 227.075C811.727 224.635 803.517 223.415 794.697 223.415C779.027 223.415 765.139 227.356 753.035 235.238C740.931 243.026 731.454 254.474 724.604 269.581C717.754 284.594 714.329 302.938 714.329 324.614C714.329 346.664 717.754 365.243 724.604 380.35C731.547 395.363 741.024 406.717 753.035 414.411C765.139 422.012 778.98 425.812 794.556 425.812C803.188 425.812 811.258 424.686 818.765 422.434C826.365 420.088 833.168 416.663 839.173 412.159C845.272 407.655 850.386 402.119 854.515 395.551C858.737 388.983 861.646 381.476 863.241 373.031L915.881 373.313C913.911 387.012 909.641 399.867 903.073 411.878C896.599 423.888 888.107 434.491 877.598 443.687C867.088 452.789 854.796 459.92 840.721 465.081C826.647 470.148 811.023 472.681 793.852 472.681C768.517 472.681 745.904 466.817 726.011 455.088C706.119 443.359 690.449 426.422 679.001 404.277C667.554 382.133 661.83 355.578 661.83 324.614C661.83 293.555 667.601 267 679.142 244.95C690.683 222.805 706.4 205.869 726.293 194.139C746.185 182.41 768.705 176.546 793.852 176.546C809.897 176.546 824.817 178.798 838.61 183.302C852.404 187.806 864.696 194.421 875.486 203.147C886.277 211.78 895.144 222.383 902.088 234.957C909.125 247.436 913.723 261.699 915.881 277.744ZM1006.45 180.487V468.74H955.503V180.487H1006.45ZM1147.2 472.963C1126.09 472.963 1107.79 468.318 1092.31 459.029C1076.83 449.739 1064.82 436.743 1056.28 420.041C1047.84 403.339 1043.61 383.822 1043.61 361.49C1043.61 339.158 1047.84 319.594 1056.28 302.798C1064.82 286.001 1076.83 272.959 1092.31 263.669C1107.79 254.38 1126.09 249.735 1147.2 249.735C1168.32 249.735 1186.61 254.38 1202.1 263.669C1217.58 272.959 1229.54 286.001 1237.99 302.798C1246.53 319.594 1250.8 339.158 1250.8 361.49C1250.8 383.822 1246.53 403.339 1237.99 420.041C1229.54 436.743 1217.58 449.739 1202.1 459.029C1186.61 468.318 1168.32 472.963 1147.2 472.963ZM1147.49 432.146C1158.93 432.146 1168.5 429.002 1176.2 422.715C1183.89 416.335 1189.62 407.796 1193.37 397.099C1197.22 386.402 1199.14 374.486 1199.14 361.349C1199.14 348.119 1197.22 336.155 1193.37 325.458C1189.62 314.667 1183.89 306.082 1176.2 299.701C1168.5 293.32 1158.93 290.13 1147.49 290.13C1135.76 290.13 1126 293.32 1118.21 299.701C1110.52 306.082 1104.75 314.667 1100.9 325.458C1097.14 336.155 1095.27 348.119 1095.27 361.349C1095.27 374.486 1097.14 386.402 1100.9 397.099C1104.75 407.796 1110.52 416.335 1118.21 422.715C1126 429.002 1135.76 432.146 1147.49 432.146ZM1458.96 309.694L1412.52 314.761C1411.2 310.07 1408.9 305.659 1405.62 301.531C1402.43 297.402 1398.11 294.071 1392.67 291.538C1387.23 289.004 1380.57 287.737 1372.69 287.737C1362.08 287.737 1353.17 290.036 1345.94 294.634C1338.81 299.232 1335.29 305.19 1335.39 312.509C1335.29 318.796 1337.59 323.91 1342.28 327.851C1347.07 331.792 1354.95 335.029 1365.93 337.562L1402.81 345.444C1423.26 349.854 1438.46 356.845 1448.41 366.416C1458.45 375.987 1463.52 388.513 1463.61 403.996C1463.52 417.602 1459.53 429.612 1451.65 440.027C1443.86 450.349 1433.02 458.419 1419.13 464.236C1405.25 470.054 1389.29 472.963 1371.28 472.963C1344.82 472.963 1323.52 467.427 1307.38 456.354C1291.24 445.188 1281.62 429.659 1278.52 409.767L1328.21 404.981C1330.46 414.74 1335.25 422.105 1342.57 427.079C1349.88 432.052 1359.41 434.538 1371.14 434.538C1383.24 434.538 1392.95 432.052 1400.27 427.079C1407.68 422.105 1411.39 415.959 1411.39 408.641C1411.39 402.448 1409 397.334 1404.21 393.299C1399.52 389.264 1392.2 386.168 1382.26 384.01L1345.38 376.268C1324.64 371.952 1309.3 364.68 1299.36 354.452C1289.41 344.131 1284.48 331.088 1284.58 315.324C1284.48 302 1288.1 290.459 1295.41 280.7C1302.83 270.848 1313.1 263.247 1326.24 257.899C1339.47 252.456 1354.72 249.735 1371.98 249.735C1397.32 249.735 1417.26 255.131 1431.8 265.921C1446.44 276.712 1455.49 291.303 1458.96 309.694ZM1499.68 468.74V252.55H1550.63V468.74H1499.68ZM1525.29 221.867C1517.22 221.867 1510.28 219.193 1504.46 213.844C1498.65 208.402 1495.74 201.881 1495.74 194.28C1495.74 186.586 1498.65 180.065 1504.46 174.716C1510.28 169.274 1517.22 166.553 1525.29 166.553C1533.46 166.553 1540.4 169.274 1546.12 174.716C1551.94 180.065 1554.85 186.586 1554.85 194.28C1554.85 201.881 1551.94 208.402 1546.12 213.844C1540.4 219.193 1533.46 221.867 1525.29 221.867ZM1734.87 377.817V252.55H1785.82V468.74H1736.42V430.316H1734.17C1729.29 442.42 1721.26 452.32 1710.1 460.014C1699.03 467.708 1685.37 471.555 1669.14 471.555C1654.97 471.555 1642.44 468.412 1631.56 462.125C1620.77 455.744 1612.32 446.502 1606.23 434.398C1600.13 422.199 1597.08 407.468 1597.08 390.202V252.55H1648.03V382.321C1648.03 396.02 1651.78 406.905 1659.29 414.974C1666.79 423.044 1676.65 427.079 1688.85 427.079C1696.35 427.079 1703.62 425.249 1710.66 421.589C1717.7 417.93 1723.47 412.488 1727.97 405.263C1732.57 397.944 1734.87 388.795 1734.87 377.817ZM2003.14 309.694L1956.69 314.761C1955.38 310.07 1953.08 305.659 1949.79 301.531C1946.6 297.402 1942.29 294.071 1936.85 291.538C1931.4 289.004 1924.74 287.737 1916.86 287.737C1906.26 287.737 1897.34 290.036 1890.12 294.634C1882.99 299.232 1879.47 305.19 1879.56 312.509C1879.47 318.796 1881.77 323.91 1886.46 327.851C1891.24 331.792 1899.12 335.029 1910.1 337.562L1946.98 345.444C1967.44 349.854 1982.64 356.845 1992.58 366.416C2002.62 375.987 2007.69 388.513 2007.78 403.996C2007.69 417.602 2003.7 429.612 1995.82 440.027C1988.03 450.349 1977.19 458.419 1963.31 464.236C1949.42 470.054 1933.47 472.963 1915.45 472.963C1888.99 472.963 1867.69 467.427 1851.55 456.354C1835.41 445.188 1825.79 429.659 1822.7 409.767L1872.38 404.981C1874.63 414.74 1879.42 422.105 1886.74 427.079C1894.06 432.052 1903.58 434.538 1915.31 434.538C1927.42 434.538 1937.13 432.052 1944.45 427.079C1951.86 422.105 1955.57 415.959 1955.57 408.641C1955.57 402.448 1953.17 397.334 1948.39 393.299C1943.7 389.264 1936.38 386.168 1926.43 384.01L1889.55 376.268C1868.82 371.952 1853.48 364.68 1843.53 354.452C1833.58 344.131 1828.66 331.088 1828.75 315.324C1828.66 302 1832.27 290.459 1839.59 280.7C1847 270.848 1857.28 263.247 1870.41 257.899C1883.64 252.456 1898.89 249.735 1916.16 249.735C1941.49 249.735 1961.43 255.131 1975.97 265.921C1990.61 276.712 1999.67 291.303 2003.14 309.694Z" fill="#1A1F36"/>
<path d="M437.331 214.002L289.287 364.821C269.254 385.23 236.495 385.615 215.986 365.683L88.3228 241.605C76.9354 230.538 58.9104 230.216 47.1351 240.87C34.6551 252.161 33.8534 271.49 45.3554 283.776L214.261 464.198C235.114 486.473 270.58 486.072 290.924 463.332L471.412 261.587C481.27 250.568 495.355 244.27 510.139 244.27H542.455C555.11 244.27 565.37 234.01 565.37 221.355C565.37 208.699 555.11 198.44 542.455 198.44L474.415 198.439C460.466 198.439 447.103 204.047 437.331 214.002Z" fill="#1A1F36"/>
<circle cx="319.06" cy="109.163" r="71.1907" fill="#1A1F36"/>
<circle cx="513.406" cy="319.098" r="33.7766" fill="#1A1F36"/>
<rect x="449" y="109" width="192" height="50" rx="23" fill="#1A1F36"/>
</svg>
