<svg xmlns="http://www.w3.org/2000/svg" viewBox="0 0 48 48" width="48" height="48">
  <path d="M44 24c0-1.4-.1-2.7-.4-4H24v8h11.2c-.5 2.6-2 4.8-4.2 6.2v5.2h6.8C41.4 36 44 30.6 44 24z" fill="#4285F4"/>
  <path d="M24 46c5.7 0 10.4-1.9 13.8-5.1l-6.8-5.2c-1.9 1.2-4.3 2-7 2-5.4 0-9.9-3.6-11.6-8.5H5.4v5.4C8.8 41.2 15.8 46 24 46z" fill="#34A853"/>
  <path d="M12.4 29.2c-.8-2.4-.8-5 0-7.4V16.4H5.4c-2.8 5.5-2.8 12 0 17.4l7-4.6z" fill="#FBBC05"/>
  <path d="M24 9.5c3 0 5.7 1 7.8 3l5.8-5.8C33.8 3.5 29.2 1.5 24 1.5 15.8 1.5 8.8 6.3 5.4 13.1l7 5.4C14.1 13.6 18.6 9.5 24 9.5z" fill="#EA4335"/>
</svg>
